<svg width="27" height="26" viewBox="0 0 27 26" fill="none" xmlns="http://www.w3.org/2000/svg">
<path d="M11.2382 5.99227C12.137 4.43523 13.6176 3.29904 15.3542 2.83363C17.0907 2.36822 18.9411 2.61172 20.4981 3.51057C22.0551 4.40941 23.1913 5.88997 23.6567 7.62654C24.1221 9.36311 23.8786 11.2134 22.9798 12.7705L22.7237 13.2125C22.6375 13.3618 22.4955 13.4707 22.329 13.5153C22.1625 13.5599 21.9851 13.5366 21.8358 13.4504L17.3313 10.8504L14.821 15.2444C16.563 15.7735 18.0606 16.976 19.1305 18.5308C18.6591 18.4997 18.1924 18.6411 17.8175 18.9286C16.5695 17.301 14.7807 16.2519 12.8463 16.2519C10.9119 16.2519 9.12309 17.301 7.87509 18.9299C7.50035 18.6419 7.03368 18.5001 6.56209 18.5308C8.01809 16.4144 10.2632 14.9519 12.8463 14.9519C13.0582 14.9519 13.2675 14.9623 13.4742 14.9805L16.2055 10.2004L11.2213 7.32087C11.072 7.23467 10.9631 7.0927 10.9185 6.92619C10.8738 6.75968 10.8972 6.58226 10.9834 6.43297L11.2382 5.99097V5.99227ZM12.4355 6.52267L14.6494 7.80057C14.654 7.79312 14.6588 7.78576 14.6637 7.77847C15.3605 6.81647 16.0157 6.07677 16.8724 5.42807C17.5123 4.95505 18.1977 4.547 18.9186 4.20997C17.7364 3.79675 16.4483 3.80087 15.2687 4.22166C14.0891 4.64244 13.0893 5.45449 12.4355 6.52267ZM18.7015 10.1393C19.306 9.07847 19.5959 8.24127 19.6973 7.42877C19.7792 6.77487 19.7428 6.10927 19.6206 5.31497C18.8029 5.70237 18.1828 6.06637 17.6576 6.46417C16.9608 6.99197 16.4057 7.59907 15.7804 8.45317L18.7015 10.1393ZM19.8273 10.7893L21.9216 11.9983C22.4893 10.9541 22.7022 9.75372 22.5282 8.57803C22.3542 7.40233 21.8028 6.31505 20.957 5.48007C21.0493 6.20807 21.074 6.89447 20.9869 7.58997C20.8582 8.61827 20.4929 9.62187 19.8273 10.7893ZM7.30569 20.2728C7.26114 20.139 7.17433 20.0234 7.05834 19.9433C6.94235 19.8632 6.80346 19.823 6.66262 19.8287C6.52178 19.8345 6.38662 19.8858 6.2775 19.975C6.16839 20.0643 6.09124 20.1866 6.05769 20.3235C5.83669 21.2257 5.41809 21.721 4.94099 22.0083C4.44179 22.3099 3.80609 22.4269 3.09629 22.4269C2.9239 22.4269 2.75857 22.4954 2.63667 22.6173C2.51477 22.7391 2.44629 22.9045 2.44629 23.0769C2.44629 23.2493 2.51477 23.4146 2.63667 23.5365C2.75857 23.6584 2.9239 23.7269 3.09629 23.7269C3.92569 23.7269 4.82919 23.5943 5.61309 23.1224C6.08037 22.8401 6.47418 22.4512 6.76229 21.9875C8.31319 23.9648 11.3409 23.9557 12.8463 21.9667C14.3764 23.9869 17.4743 23.9648 19.0018 21.8926C19.4167 22.4571 19.9577 22.917 20.5818 23.2354C21.2059 23.5539 21.8957 23.7222 22.5963 23.7269C22.7687 23.7269 22.934 23.6584 23.0559 23.5365C23.1778 23.4146 23.2463 23.2493 23.2463 23.0769C23.2463 22.9045 23.1778 22.7391 23.0559 22.6173C22.934 22.4954 22.7687 22.4269 22.5963 22.4269C21.3184 22.4269 20.0444 21.5949 19.6232 20.2793C19.5811 20.149 19.499 20.0353 19.3886 19.9545C19.2781 19.8736 19.1449 19.8297 19.008 19.829C18.8712 19.8282 18.7375 19.8708 18.6262 19.9505C18.5149 20.0301 18.4316 20.1429 18.3882 20.2728C17.5523 22.7935 14.2802 22.761 13.4612 20.3768C13.4173 20.2486 13.3344 20.1373 13.2241 20.0586C13.1139 19.9798 12.9818 19.9375 12.8463 19.9375C12.7108 19.9375 12.5787 19.9798 12.4684 20.0586C12.3582 20.1373 12.2753 20.2486 12.2314 20.3768C11.4124 22.761 8.14029 22.7935 7.30439 20.2728H7.30569Z" fill="#25283E"/>
</svg>
