<svg width="26" height="26" viewBox="0 0 26 26" fill="none" xmlns="http://www.w3.org/2000/svg">
<path d="M1.08301 23.8333H24.9163" stroke="#6B7280" stroke-width="1.625" stroke-miterlimit="10" stroke-linecap="round" stroke-linejoin="round"/>
<path d="M21.4287 23.8439V19.0122" stroke="#6B7280" stroke-width="1.625" stroke-miterlimit="10" stroke-linecap="round" stroke-linejoin="round"/>
<path d="M21.4498 11.7976C20.1281 11.7976 19.0664 12.8593 19.0664 14.181V16.6401C19.0664 17.9617 20.1281 19.0234 21.4498 19.0234C22.7714 19.0234 23.8331 17.9617 23.8331 16.6401V14.181C23.8331 12.8593 22.7714 11.7976 21.4498 11.7976Z" stroke="#6B7280" stroke-width="1.625" stroke-miterlimit="10" stroke-linecap="round" stroke-linejoin="round"/>
<path d="M2.27441 23.833V6.53219C2.27441 4.35469 3.3578 3.2605 5.51364 3.2605H12.2628C14.4186 3.2605 15.4911 4.35469 15.4911 6.53219V23.833" stroke="#6B7280" stroke-width="1.625" stroke-miterlimit="10" stroke-linecap="round" stroke-linejoin="round"/>
<path d="M6.2832 8.9375H11.6457" stroke="#6B7280" stroke-width="1.625" stroke-miterlimit="10" stroke-linecap="round" stroke-linejoin="round"/>
<path d="M6.2832 13H11.6457" stroke="#6B7280" stroke-width="1.625" stroke-miterlimit="10" stroke-linecap="round" stroke-linejoin="round"/>
<path d="M8.9375 23.8333V19.7708" stroke="#6B7280" stroke-width="1.625" stroke-miterlimit="10" stroke-linecap="round" stroke-linejoin="round"/>
</svg>
