<svg width="1626" height="845" viewBox="0 0 1626 845" fill="none" xmlns="http://www.w3.org/2000/svg">
<g clip-path="url(#clip0_4994_459)">
<path d="M1111.21 54.8698L1087.34 85.1898L1087.22 85.3698V90.3198H1043.45V84.9998L1019.73 54.8298C1019.29 54.2702 1019.02 53.5985 1018.95 52.8917C1018.87 52.1849 1019 51.4716 1019.31 50.8337C1019.63 50.1958 1020.11 49.6591 1020.72 49.2852C1021.32 48.9113 1022.02 48.7153 1022.73 48.7198H1043.49V30.4498C1043.5 29.7143 1043.73 28.9994 1044.16 28.3998L1062.29 3.73976C1062.65 3.26129 1063.12 2.8732 1063.66 2.60599C1064.19 2.33878 1064.79 2.19971 1065.39 2.19971C1065.98 2.19971 1066.58 2.33878 1067.11 2.60599C1067.65 2.8732 1068.12 3.26129 1068.48 3.73976L1086.58 28.6298C1087.02 29.222 1087.26 29.941 1087.26 30.6798V48.7598H1108.26C1108.97 48.7553 1109.67 48.9513 1110.27 49.3252C1110.88 49.6991 1111.36 50.2358 1111.68 50.8737C1111.99 51.5116 1112.12 52.2249 1112.04 52.9317C1111.97 53.6385 1111.7 54.3102 1111.26 54.8698H1111.21Z" fill="white"/>
<path d="M1159.93 45.2196C1159.25 45.7771 1158.4 46.078 1157.52 46.0696C1156.78 46.0741 1156.06 45.8582 1155.45 45.4496C1150.14 41.9196 1139.97 36.3096 1135.19 36.3096H1099.66V28.7696H1135.19C1139.19 28.7696 1144.28 30.7196 1148.84 32.9496C1145.71 27.3145 1141.78 22.1558 1137.19 17.6296C1134.02 14.6174 1129.8 12.9571 1125.42 12.9996H1099.66V5.37957H1125.42C1131.76 5.35523 1137.85 7.79757 1142.42 12.1896C1147.58 17.1296 1155.02 26.1896 1161.05 40.8696C1161.35 41.6191 1161.41 42.446 1161.21 43.229C1161 44.0119 1160.56 44.7096 1159.93 45.2196Z" fill="white"/>
<path d="M1099.66 3.77977V48.7798H1092.12V3.77977C1092.12 2.7799 1092.52 1.82099 1093.22 1.11397C1093.93 0.406961 1094.89 0.00976563 1095.89 0.00976562C1096.89 0.00976563 1097.85 0.406961 1098.56 1.11397C1099.26 1.82099 1099.66 2.7799 1099.66 3.77977Z" fill="white"/>
<path d="M1098.64 286V304.18H1113.64V339.8H1098.64V371.45H1109.13V394.39H1098.64V433.17C1117.95 433.52 1137.15 433.7 1156.06 433.62C1181.33 433.3 1206.74 432.62 1232.13 431.32V286H1098.64ZM1165.12 394.35H1131.47V371.45H1165.12V394.35ZM1165.12 339.76H1131.47V304.22H1165.12V339.76ZM1220.24 394.35H1186.58V371.45H1220.24V394.35ZM1220.24 339.76H1186.58V304.22H1220.24V339.76Z" fill="white"/>
<path d="M505.29 299.13V447.45C554.648 435.377 604.848 427.047 655.46 422.53V299.13H505.29ZM549 386.8H530V354.7H549V386.8ZM549 339.8H530V307.7H549V339.8ZM601.41 386.8H582.41V354.7H601.41V386.8ZM601.41 339.8H582.41V307.7H601.41V339.8ZM648.66 386.8H629.66V354.7H648.66V386.8ZM648.66 339.8H629.66V307.7H648.66V339.8Z" fill="white"/>
<path d="M655.45 268.56H505.28V276.95H655.45V268.56Z" fill="white"/>
<path d="M714.12 267.18H663V258.79H714V266.33C713.999 266.617 714.039 266.903 714.12 267.18Z" fill="white"/>
<path d="M721.46 270.11C721.534 270.387 721.567 270.673 721.56 270.96V270.11H721.46ZM714 266.33V267.18H714.1C714.026 266.902 713.993 266.616 714 266.33Z" fill="white"/>
<path d="M714.01 274.72H662.98V283.11H714.01V274.72Z" fill="white"/>
<path d="M721.29 286C721.449 286.345 721.534 286.72 721.54 287.1C721.55 287.017 721.55 286.933 721.54 286.85V286H721.29Z" fill="white"/>
<path d="M1032 270.11V278.47H721.55V271C721.557 270.713 721.524 270.427 721.45 270.15L1032 270.11Z" fill="white"/>
<path d="M721.46 270.11C721.534 270.387 721.567 270.673 721.56 270.96V270.11H721.46ZM714 266.33V267.18H714.1C714.026 266.902 713.993 266.616 714 266.33Z" fill="white"/>
<path d="M1032 304.22V286H721.29C721.449 286.345 721.534 286.72 721.54 287.1C721.55 287.183 721.55 287.267 721.54 287.35V418.22C738.473 417.553 755.377 417.203 772.25 417.17C791.36 417.12 814.89 417.77 833.97 418.37C873.06 420.1 916.66 424.37 955.64 426.81C980.64 428.54 1006.28 429.97 1032.02 431.07V397.07H1017.02V371.45H1032.02V339.8H1017.02V304.22H1032ZM770.19 394.39H736.29V372.3H770.19V394.39ZM770.19 339.8H736.29V304.22H770.19V339.8ZM820.55 394.39H786.64V372.3H820.55V394.39ZM820.55 339.8H786.64V304.22H820.55V339.8ZM840.83 304.22H874.73V339.8H840.83V304.22ZM876.83 394.39H842.88V372.3H876.79L876.83 394.39ZM898.44 304.22H932.34V339.8H898.4L898.44 304.22ZM936.55 394.39H902.6V372.3H936.51L936.55 394.39ZM991.34 394.39H964.2V377.23H991.3L991.34 394.39ZM994.74 339.8H960.8V304.22H994.7L994.74 339.8Z" fill="white"/>
<path d="M721.29 286C721.449 286.345 721.534 286.72 721.54 287.1C721.55 287.183 721.55 287.267 721.54 287.35V286H721.29Z" fill="white"/>
<path d="M985.29 245.05V245.4H984.46C984.759 245.345 985.042 245.225 985.29 245.05Z" fill="white"/>
<path d="M1032.02 245.57H721.55V262.55H1032.02V245.57Z" fill="white"/>
<path d="M984.46 245.4H985.29V245.05C985.042 245.225 984.759 245.345 984.46 245.4Z" fill="white"/>
<path d="M1091.11 102.62V433C1073.98 432.65 1056.75 432.1 1039.57 431.4V102.62H1091.11Z" fill="white"/>
<path d="M966.43 221.03H818.67V238.03H966.43V221.03Z" fill="white"/>
<path d="M966.43 206.39V213.5H815.76L899.15 176.59L966.43 206.39Z" fill="white"/>
<path d="M982.51 213.5H981.53V213.07L982.51 213.5Z" fill="white"/>
<path d="M663 291.17V421.86C680 420.38 697 419.27 714 418.53V291.17H663ZM700.86 385.27H681.86V353.15H700.86V385.27ZM700.86 338.27H681.86V306.17H700.86V338.27Z" fill="white"/>
<path d="M655.47 287.14C655.459 287.223 655.459 287.307 655.47 287.39V291.59H498.1V284.48H655.45V286.89C655.447 286.974 655.454 287.058 655.47 287.14Z" fill="white"/>
<path d="M655.46 286.89V287.39C655.487 287.224 655.487 287.055 655.46 286.89ZM655.46 286.89V287.39C655.487 287.224 655.487 287.055 655.46 286.89Z" fill="white"/>
<path d="M981.53 172.88V245.4H974V172.88C973.945 172.351 974.003 171.816 974.168 171.311C974.333 170.805 974.602 170.34 974.959 169.945C975.315 169.55 975.75 169.234 976.236 169.018C976.722 168.802 977.248 168.69 977.78 168.69C978.312 168.69 978.838 168.802 979.324 169.018C979.81 169.234 980.245 169.55 980.601 169.945C980.958 170.34 981.227 170.805 981.392 171.311C981.557 171.816 981.614 172.351 981.56 172.88H981.53Z" fill="white"/>
<path d="M982.51 213.5H981.53V213.07L982.51 213.5Z" fill="white"/>
<path d="M985.29 245.05V245.4H984.46C984.759 245.345 985.042 245.225 985.29 245.05Z" fill="white"/>
<path d="M981.53 213.07V213.5H982.53L981.53 213.07ZM984.46 245.4H985.29V245.05C985.042 245.225 984.759 245.345 984.46 245.4Z" fill="white"/>
<path d="M1235.45 245.57H1098.63V266.93H1235.45V245.57Z" fill="white"/>
<path d="M1239.3 274.47H1098.63V278.48H1239.3V274.47Z" fill="white"/>
<path d="M1532.38 349.18C1528.92 358.88 1522.38 367.33 1515.69 375.07C1508.65 382.727 1500.95 389.753 1492.69 396.07C1432.44 440.9 1353.34 461.32 1280.31 473.84C1260.21 477.27 1239.31 480.08 1219.02 482.14C1211.22 482.85 1195.66 484.66 1188.28 485.07C1083.2 493.29 976.12 489.53 871.28 479.92C758.84 471.59 644.64 471.22 532.77 486.2C460.14 496.2 387.64 511.87 319.59 539.62C307.14 544.82 294.76 550.28 283 556.93C295.85 545.69 310.28 536.36 324.89 527.59C357.39 508.37 392.06 493.16 427.61 480.45C537.83 441.57 655.77 427.28 772.28 427C791.38 426.94 814.92 427.6 834 428.19C873.09 429.93 916.68 434.19 955.67 436.64C1021.13 441.15 1090.41 443.64 1156.06 443.45C1215.64 442.73 1276.06 440.03 1335.06 431.36C1342.06 430.46 1348.06 429.28 1354.69 428.21L1364.51 426.56L1374.23 424.56C1393.72 420.773 1412.97 415.865 1431.89 409.86C1460.09 400.86 1488.11 388.96 1511.7 370.86C1519.43 364.56 1527.12 357.76 1532.33 349.15L1532.38 349.18Z" fill="white"/>
<path d="M1406.11 433.57C1402.51 443.22 1395.91 451.57 1389.11 459.27C1377.15 471.901 1363.55 482.878 1348.68 491.91C1325.28 506.57 1299.39 517.98 1273.36 527.1C1227.61 543.1 1180.11 552.85 1132.25 559.67C1037.16 572.5 940.56 573.04 844.89 567.91C825.12 566.48 803.23 565.36 783.65 563.6C754.81 560.76 712.2 557.3 683.35 555.85C643.87 553.61 602.98 552.76 563.45 553.25C487.02 554.25 410.08 560.65 334.93 574.89C285.73 584.55 236.78 597.21 190.19 615.89C177.604 620.83 165.319 626.507 153.4 632.89C166.4 621.76 180.9 612.56 195.61 603.89C228.31 584.89 263.13 569.95 298.81 557.48C353.94 538.32 411.64 525.48 469.41 517.38C527.01 509.29 586.16 505.87 644.3 506.23C663.42 506.3 687 507.11 706.1 507.83C745.22 509.83 788.84 514.38 827.87 517.12C879.42 521.05 936.54 523.79 988.38 524.89C1048.18 525.7 1108.7 524.89 1168.24 518.89C1180.07 517.89 1200.94 515.27 1212.79 513.6C1219.95 512.38 1230.11 510.86 1237.36 509.6C1245.75 507.94 1258.12 505.66 1266.57 503.6C1275.46 501.73 1286.67 498.7 1295.48 496.29C1320.71 488.84 1346.01 479.53 1368.7 466.05C1382.78 457.37 1396.93 447.47 1406.14 433.45L1406.11 433.57Z" fill="white"/>
<path d="M114.44 840.58C114.649 840.378 114.876 840.198 115.12 840.04C115.6 839.608 116.011 839.106 116.34 838.55C116.86 837.777 117.312 836.961 117.69 836.11C118.083 835.122 118.267 834.063 118.23 833C118.21 831.667 117.837 830.363 117.15 829.22L103.89 799.22H29L16.82 829.22C15.9687 831.081 15.734 833.166 16.15 835.17C16.4786 836.585 17.1676 837.89 18.15 838.96L19.5 840.58V843.82H0V840.58C2.52 839.68 5.76667 835.983 9.74 829.49L74.13 672H77.65L149.07 829.46C150.582 831.935 152.301 834.277 154.21 836.46C155.286 837.727 156.463 838.904 157.73 839.98L158.81 840.52V843.76H114.44V840.58ZM31.11 793.77H101.46L64.66 710.45L31.11 793.77Z" fill="white"/>
<path d="M207.78 839.5V843H166.39V839.5C169.63 837.16 171.39 833.5 171.53 828.4V713.69C171.53 698.536 169.997 688.796 166.93 684.469V681.229C172.261 681.182 177.553 680.315 182.62 678.659C186.847 677.441 190.927 675.765 194.79 673.659L198.85 671.229H202.91V828.14C202.88 830.317 203.295 832.478 204.13 834.49C204.659 835.984 205.541 837.328 206.7 838.409L207.78 839.5Z" fill="white"/>
<path d="M336.56 808.65L342 811.9C339.414 817.242 336.044 822.166 332 826.51C320.453 838.596 305.213 844.64 286.28 844.64C267.88 844.64 252.727 838.596 240.82 826.51C229.073 814.07 223.2 798.566 223.2 780C222.948 762.98 229.241 746.513 240.78 734C251.78 721.56 265.85 715.336 282.99 715.33C290.755 715.318 298.488 716.326 305.99 718.33C313.33 720.294 320.189 723.745 326.14 728.47C332.18 733.263 336.013 738.993 337.64 745.66C338.401 748.525 338.212 751.561 337.1 754.31C336.193 756.457 334.628 758.26 332.63 759.46C330.561 760.605 328.328 761.425 326.01 761.89C322.768 762.641 319.376 762.404 316.27 761.21C313.591 760.206 311.279 758.414 309.64 756.07C308.056 753.725 306.911 751.113 306.26 748.36C305.258 744.005 303.476 739.869 301 736.15C298.8 732.775 295.947 729.875 292.61 727.62C289.554 725.595 286.232 724.004 282.74 722.89C279.376 721.815 275.809 721.537 272.32 722.08C268.903 722.575 265.681 723.977 262.99 726.14C258.477 729.38 255.093 734.113 252.84 740.34C250.587 746.566 249.957 754.366 250.95 763.74C251.937 773.12 254.957 782.95 260.01 793.23C261.81 796.483 263.66 799.64 265.56 802.7C267.73 806.132 270.221 809.349 273 812.31C275.905 815.504 279.121 818.402 282.6 820.96C286.212 823.542 290.175 825.593 294.37 827.05C298.883 828.674 303.644 829.499 308.44 829.49C314.568 829.425 320.471 827.169 325.08 823.13C329.946 819.227 333.87 814.277 336.56 808.65Z" fill="white"/>
<path d="M466.15 819.75C466.15 828.77 468.223 835.353 472.37 839.5V843H434.77L435.03 821.63C424.03 836.963 410.143 844.63 393.37 844.63C382.19 844.63 373.263 842.15 366.59 837.19C359.917 832.23 356.053 824.883 355 815.15C353.92 805.41 355.92 796.796 361 789.31C366.08 781.823 373.473 777 383.18 774.84C386.793 774.12 391.257 773.353 396.57 772.54C401.89 771.72 406.18 771.1 409.42 770.64C413.008 770.107 416.539 769.247 419.97 768.07C423.149 767.128 426.131 765.617 428.77 763.61C431.043 761.599 432.831 759.1 434 756.3C435.555 752.576 436.295 748.563 436.17 744.53C436.243 738.524 434.751 732.603 431.84 727.35C428.947 722.21 424.257 719.64 417.77 719.64C411.103 719.64 405.557 722.483 401.13 728.17C396.583 734.123 393.398 741.001 391.8 748.32C390.748 752.663 388.329 756.554 384.9 759.42C381.567 762.12 377.283 762.93 372.05 761.85C362.85 760.23 359.06 754.82 360.68 745.62C361.675 740.39 364.222 735.581 367.99 731.82C371.989 727.647 376.83 724.371 382.19 722.21C387.602 719.985 393.223 718.31 398.97 717.21C404.251 716.168 409.618 715.622 415 715.58C421.924 715.539 428.841 715.993 435.7 716.94C441.208 717.634 446.593 719.091 451.7 721.27C455.711 722.954 459.278 725.545 462.12 728.84C464.6 731.792 465.944 735.534 465.91 739.39C465.905 741.379 465.539 743.351 464.83 745.21C464.168 746.971 463.302 748.649 462.25 750.21C461.038 751.902 459.632 753.446 458.06 754.81C456.55 756.198 454.972 757.51 453.33 758.74C451.541 760.003 449.688 761.174 447.78 762.25C445.43 763.61 443.72 764.55 442.64 765.1C441.56 765.65 439.89 766.45 437.64 767.53C435.39 768.61 434.07 769.25 433.71 769.43C431.177 770.51 427.253 772.266 421.94 774.7L408.94 780.65C404.98 782.532 401.139 784.656 397.44 787.01C393.782 789.184 390.421 791.823 387.44 794.86C385.003 797.532 383.118 800.658 381.89 804.06C380.535 807.687 380.21 811.619 380.95 815.42C381.886 821.133 384.983 826.267 389.6 829.76C394.267 833.366 399.95 835.08 406.65 834.9C410.427 834.75 414.133 833.819 417.532 832.165C420.932 830.511 423.951 828.17 426.4 825.29C431.685 819.582 434.586 812.068 434.51 804.29V777C434.69 777 436.72 776.19 440.6 774.57C444.48 772.94 447.18 771.72 448.72 770.91C450.26 770.1 452.46 768.91 455.35 767.26C457.808 765.932 460.118 764.346 462.24 762.53C463.785 761.23 465.033 759.613 465.9 757.79L466.15 819.75Z" fill="white"/>
<path d="M545.69 835.44L546.23 840.31C541.643 842.006 536.78 842.83 531.89 842.74C531.165 842.782 530.443 842.873 529.73 843.01C527.017 843.01 524.853 842.966 523.24 842.88C521.627 842.793 519.37 842.523 516.47 842.07C514.092 841.765 511.769 841.125 509.57 840.17C507.446 839.091 505.45 837.776 503.62 836.25C501.405 834.503 499.605 832.286 498.35 829.76C496.883 826.647 495.792 823.371 495.1 820C494.146 815.554 493.693 811.016 493.75 806.47L494 723.7H480V718.29C483.843 718.125 487.594 717.06 490.95 715.18C494.99 713.124 498.762 710.578 502.18 707.6C505.607 704.626 508.81 701.606 511.79 698.54C514.77 695.473 517.07 692.95 518.69 690.97L521.12 687.72H525.18V718.29H543V723.7H525.13V808.65C525.13 827.05 530.463 836.25 541.13 836.25C542.681 836.195 544.216 835.923 545.69 835.44Z" fill="white"/>
<path d="M628.2 715.58C635.078 715.488 641.838 717.369 647.68 721C650.425 722.623 652.756 724.86 654.491 727.535C656.226 730.211 657.318 733.252 657.68 736.42C657.912 738.131 657.753 739.872 657.214 741.512C656.675 743.153 655.771 744.65 654.57 745.89C653.444 747.11 652.057 748.06 650.512 748.668C648.968 749.275 647.305 749.526 645.65 749.4C643.935 749.327 642.258 748.877 640.737 748.082C639.216 747.286 637.889 746.166 636.85 744.8C634.845 741.983 633.505 738.749 632.93 735.34C632.364 732.089 631.316 728.941 629.82 726C628.55 723.75 626.39 722.62 623.32 722.62C618.087 722.62 613.087 725.46 608.32 731.14C603.639 736.653 600.015 742.982 597.63 749.81C595.29 756.603 594.12 762.333 594.12 767V828.15C594.087 830.327 594.499 832.488 595.33 834.5C595.864 835.992 596.745 837.335 597.9 838.42L599 839.5V843H557.6V839.5C560.85 837.16 562.6 833.5 562.74 828.4V760.77C562.74 745.623 561.207 735.883 558.14 731.55V728.55C563.467 728.513 568.756 727.653 573.82 726C578.051 724.785 582.136 723.108 586 721L590.06 718.29H594.12V738.58C597.438 731.998 602.372 726.366 608.46 722.21C614.767 717.797 621.347 715.587 628.2 715.58Z" fill="white"/>
<path d="M779.17 819.75C779.17 828.77 781.243 835.353 785.39 839.5V843H747.78L748.05 821.63C737.05 836.963 723.163 844.63 706.39 844.63C695.203 844.63 686.273 842.15 679.6 837.19C672.927 832.23 669.06 824.883 668 815.15C666.92 805.41 668.903 796.796 673.95 789.31C678.997 781.823 686.393 777 696.14 774.84C699.74 774.12 704.203 773.353 709.53 772.54C714.85 771.72 719.14 771.1 722.38 770.64C725.968 770.107 729.499 769.247 732.93 768.07C736.109 767.128 739.091 765.617 741.73 763.61C744.017 761.603 745.819 759.104 747 756.3C748.555 752.576 749.295 748.563 749.17 744.53C749.243 738.524 747.751 732.603 744.84 727.35C741.947 722.21 737.257 719.64 730.77 719.64C724.103 719.64 718.557 722.483 714.13 728.17C709.583 734.123 706.398 741.001 704.8 748.32C703.748 752.663 701.329 756.554 697.9 759.42C694.567 762.12 690.283 762.93 685.05 761.85C675.85 760.23 672.06 754.82 673.68 745.62C674.675 740.39 677.222 735.581 680.99 731.82C684.989 727.647 689.829 724.371 695.19 722.21C705.612 717.954 716.743 715.704 728 715.58C734.924 715.539 741.841 715.993 748.7 716.94C754.208 717.634 759.593 719.091 764.7 721.27C768.711 722.954 772.278 725.545 775.12 728.84C777.6 731.792 778.944 735.534 778.91 739.39C778.905 741.379 778.539 743.351 777.83 745.21C777.168 746.971 776.302 748.649 775.25 750.21C774.038 751.902 772.632 753.446 771.06 754.81C769.55 756.198 767.972 757.51 766.33 758.74C764.541 760.003 762.688 761.174 760.78 762.25C758.43 763.61 756.72 764.55 755.64 765.1C754.56 765.65 752.89 766.45 750.64 767.53C748.39 768.61 747.07 769.25 746.71 769.43C744.177 770.51 740.253 772.266 734.94 774.7L721.94 780.65C717.98 782.532 714.139 784.656 710.44 787.01C706.782 789.184 703.421 791.823 700.44 794.86C698.003 797.532 696.118 800.658 694.89 804.06C693.536 807.687 693.208 811.618 693.94 815.42C694.883 821.133 697.983 826.266 702.6 829.76C707.267 833.366 712.933 835.08 719.6 834.9C723.377 834.75 727.083 833.819 730.482 832.165C733.882 830.511 736.901 828.17 739.35 825.29C744.635 819.582 747.536 812.068 747.46 804.29V777C747.64 777 749.67 776.19 753.55 774.57C757.43 772.94 760.13 771.72 761.67 770.91C763.21 770.1 765.41 768.91 768.3 767.26C770.758 765.932 773.068 764.346 775.19 762.53C776.732 761.227 777.979 759.611 778.85 757.79L779.17 819.75Z" fill="white"/>
<path d="M806.49 718.29H903.35V723.16L832.73 838.16H870.88C873.116 838.177 875.344 837.905 877.51 837.35C879.407 836.869 881.263 836.237 883.06 835.46C884.689 834.73 886.232 833.821 887.66 832.75C889.1 831.67 890.4 830.59 891.58 829.51C892.708 828.467 893.748 827.333 894.69 826.12C895.59 824.95 896.36 823.87 896.99 822.88C897.62 821.89 898.16 820.98 898.61 820.17C898.984 819.532 899.302 818.863 899.56 818.17L900.1 817.63H903.35L899.29 843H796.75V839.22L870.88 723.15H835.71C831.892 723.119 828.111 723.903 824.62 725.45C821.507 726.77 818.663 728.651 816.23 731C814.186 733.026 812.288 735.195 810.55 737.49C809.225 739.189 808.047 740.999 807.03 742.9L806 745.35H801.4L806.49 718.29Z" fill="white"/>
<path d="M1036.72 829C1036.7 831.222 1037.11 833.427 1037.94 835.49C1038.45 837.032 1039.34 838.426 1040.51 839.55L1041.59 840.63V843.87H1000.2V840.63C1003.44 838.29 1005.2 834.5 1005.33 829.27V686.91C1005.35 684.672 1004.89 682.455 1003.98 680.41C1003.39 678.936 1002.57 677.565 1001.55 676.35L1000.2 675.27V672H1041.59V675.24C1038.34 677.593 1036.63 681.383 1036.45 686.61L1036.72 829Z" fill="white"/>
<path d="M1116 766.18C1116.98 766.444 1117.99 766.625 1119 766.719C1123.51 767.799 1127.12 768.703 1129.83 769.43C1133.68 770.582 1137.43 772.03 1141.05 773.76C1145.17 775.499 1149.01 777.86 1152.42 780.76C1155.53 783.712 1158.09 787.192 1159.99 791.039C1162.29 795.56 1163.46 800.576 1163.38 805.65C1163.38 817.55 1158.96 827.02 1150.12 834.06C1141.64 840.906 1130.46 844.333 1116.57 844.34C1098.28 844.277 1080.21 840.309 1063.57 832.7L1060 806.219H1063.24C1064.33 808.219 1065.45 810.219 1066.63 812.169C1068.56 815.178 1070.73 818.027 1073.12 820.69C1076.14 824.266 1079.59 827.447 1083.4 830.159C1087.84 833.134 1092.66 835.489 1097.74 837.159C1103.69 839.247 1109.96 840.299 1116.27 840.27C1125.29 840.27 1132.14 838.466 1136.83 834.859C1141.52 831.253 1143.85 826.653 1143.83 821.06C1143.87 818.532 1143.31 816.031 1142.2 813.76C1140.92 811.347 1139.06 809.286 1136.79 807.76C1134.02 805.826 1131.02 804.238 1127.86 803.03C1123.6 801.408 1119.26 800.006 1114.86 798.83C1102.05 795.23 1091.95 792.073 1084.56 789.359C1075.89 786.299 1069.35 781.343 1064.94 774.49C1060.53 767.636 1059.04 759.7 1060.48 750.68C1062.1 739.306 1067.1 730.556 1075.48 724.43C1083.3 718.493 1092.85 715.263 1102.67 715.229C1120 715.229 1134.61 719.11 1146.5 726.87L1150.29 750.13L1146.23 750.68C1144.77 747.047 1143.05 743.522 1141.09 740.13C1139.03 736.859 1136.66 733.801 1134 731C1130.63 727.439 1126.39 724.825 1121.69 723.419C1115.9 721.694 1109.87 720.875 1103.83 720.99C1096.62 720.99 1090.89 723.016 1086.65 727.07C1084.65 728.859 1083.05 731.049 1081.96 733.498C1080.87 735.946 1080.3 738.598 1080.3 741.28C1080.3 747.046 1083.14 751.87 1088.82 755.75C1094.5 759.63 1103.56 763.106 1116 766.18Z" fill="white"/>
<path d="M1219.06 839.5V843H1177.67V839.5C1180.92 837.16 1182.67 833.5 1182.81 828.4V713.69C1182.81 698.536 1181.28 688.796 1178.21 684.469V681.229C1183.54 681.182 1188.83 680.315 1193.9 678.659C1198.13 677.439 1202.21 675.762 1206.08 673.659L1210.14 671.229H1214.14V828.14C1214.11 830.317 1214.53 832.478 1215.36 834.49C1215.89 835.981 1216.77 837.325 1217.93 838.409L1219.06 839.5Z" fill="white"/>
<path d="M1346.49 819.75C1346.49 828.77 1348.56 835.353 1352.71 839.5V843H1315.11L1315.38 821.63C1304.37 836.963 1290.48 844.63 1273.71 844.63C1262.53 844.63 1253.6 842.15 1246.93 837.19C1240.26 832.23 1236.38 824.88 1235.3 815.14C1234.21 805.4 1236.21 796.787 1241.3 789.3C1246.39 781.813 1253.78 776.99 1263.48 774.83C1267.09 774.11 1271.55 773.343 1276.87 772.53C1282.19 771.71 1286.48 771.09 1289.73 770.63C1293.32 770.095 1296.85 769.235 1300.28 768.06C1303.46 767.117 1306.43 765.605 1309.07 763.6C1311.36 761.592 1313.16 759.093 1314.35 756.29C1315.9 752.565 1316.64 748.552 1316.51 744.52C1316.58 738.514 1315.09 732.593 1312.18 727.34C1309.29 722.2 1304.6 719.63 1298.11 719.63C1291.44 719.63 1285.9 722.473 1281.47 728.16C1276.92 734.113 1273.74 740.991 1272.14 748.31C1271.1 752.656 1268.68 756.549 1265.24 759.41C1261.91 762.11 1257.62 762.92 1252.39 761.84C1243.19 760.22 1239.4 754.81 1241.03 745.61C1242.02 740.381 1244.57 735.572 1248.33 731.81C1252.33 727.637 1257.18 724.361 1262.54 722.2C1267.95 719.975 1273.57 718.3 1279.31 717.2C1284.61 716.154 1290 715.608 1295.41 715.57C1302.33 715.529 1309.24 715.984 1316.1 716.93C1321.61 717.626 1326.99 719.083 1332.1 721.26C1336.11 722.947 1339.67 725.538 1342.51 728.83C1344.37 731.074 1345.6 733.772 1346.08 736.648C1346.55 739.525 1346.26 742.476 1345.22 745.2C1344.56 746.963 1343.7 748.641 1342.65 750.2C1341.44 751.89 1340.03 753.433 1338.46 754.8C1336.65 756.433 1335.07 757.743 1333.72 758.73C1331.93 759.998 1330.08 761.169 1328.17 762.24C1325.83 763.6 1324.17 764.54 1323.03 765.09C1321.89 765.64 1320.28 766.44 1318.03 767.52C1315.78 768.6 1314.46 769.24 1314.1 769.42C1311.58 770.5 1307.66 772.257 1302.34 774.69L1289.34 780.64C1285.38 782.522 1281.54 784.646 1277.84 787C1274.18 789.175 1270.82 791.813 1267.84 794.85C1265.4 797.52 1263.52 800.647 1262.3 804.05C1260.93 807.672 1260.58 811.603 1261.3 815.41C1262.24 821.126 1265.34 826.261 1269.96 829.75C1274.63 833.357 1280.29 835.07 1286.96 834.89C1290.74 834.741 1294.44 833.809 1297.84 832.155C1301.24 830.501 1304.26 828.16 1306.71 825.28C1312 819.573 1314.9 812.06 1314.83 804.28V777C1315 777 1317.03 776.19 1320.92 774.57C1324.79 772.94 1327.5 771.72 1329.03 770.91C1330.56 770.1 1332.77 768.91 1335.66 767.26C1338.12 765.929 1340.43 764.344 1342.56 762.53C1344.1 761.227 1345.34 759.611 1346.21 757.79L1346.49 819.75Z" fill="white"/>
<path d="M1443.34 839.5C1446.59 837.16 1448.34 833.5 1448.49 828.4V752.11C1448.49 733.71 1443.26 724.51 1432.79 724.51C1427.56 724.51 1422.73 727.176 1418.32 732.51C1413.98 737.69 1410.67 743.659 1408.58 750.09C1406.67 755.531 1405.62 761.236 1405.47 767V828.15C1405.44 830.327 1405.85 832.487 1406.68 834.5C1407.22 835.992 1408.1 837.336 1409.26 838.42L1410.34 839.51V843H1368.94V839.5C1372.19 837.16 1373.94 833.5 1374.08 828.4V760.77C1374.08 745.623 1372.55 735.883 1369.48 731.55V728.55C1374.81 728.508 1380.11 727.641 1385.18 725.98C1389.41 724.763 1393.49 723.087 1397.35 720.98L1401.41 718.27H1405.47V738.56C1408.79 731.978 1413.72 726.345 1419.81 722.19C1425.54 717.967 1432.45 715.649 1439.56 715.56C1444 715.579 1448.42 716.219 1452.68 717.46C1457.32 718.825 1461.71 720.925 1465.68 723.68C1470.16 726.849 1473.73 731.152 1476 736.15C1478.72 742.085 1480.06 748.561 1479.92 755.09V828.09C1479.88 830.268 1480.3 832.43 1481.14 834.44C1481.67 835.934 1482.55 837.278 1483.71 838.36L1484.79 839.45V843H1443.39L1443.34 839.5Z" fill="white"/>
<path d="M1625.15 839.5V842.74C1613.06 840.58 1603.59 839.5 1596.74 839.5C1589.21 839.707 1581.71 840.475 1574.29 841.799C1564.72 843.333 1558.22 844.099 1554.81 844.099C1550.6 844.115 1546.4 843.844 1542.23 843.289C1537.4 842.448 1532.71 840.944 1528.29 838.82C1523.06 836.517 1518.36 833.157 1514.49 828.95C1510.71 824.796 1507.46 818.663 1504.75 810.549C1502.04 802.436 1500.7 792.786 1500.75 781.599C1500.75 770.779 1502.08 761.219 1504.75 752.919C1507.42 744.619 1510.66 738.263 1514.49 733.849C1518.26 729.445 1522.85 725.815 1528 723.159C1532.34 720.79 1536.98 719.018 1541.8 717.89C1545.8 717.069 1549.88 716.661 1553.97 716.669C1567.5 716.669 1579.22 721.72 1589.15 731.82V713.69C1589.15 698.536 1587.53 688.796 1584.28 684.469V681.229C1589.66 681.203 1595 680.336 1600.11 678.659C1604.28 677.425 1608.3 675.748 1612.11 673.659L1616.17 671.229H1620.23V828.14C1620.2 830.317 1620.62 832.478 1621.45 834.49C1621.98 835.984 1622.86 837.328 1624.02 838.409L1625.15 839.5ZM1589.15 808.109V754.81C1589.15 746.343 1586.71 739.129 1581.84 733.169C1576.97 727.209 1570.83 724.233 1563.44 724.24C1552.44 724.24 1544.69 729.156 1540.18 738.99C1535.67 748.823 1533.42 763.026 1533.41 781.599C1533.34 789.55 1533.7 797.499 1534.5 805.409C1535.11 811.449 1536.43 817.396 1538.42 823.13C1540.31 828.463 1543.15 832.43 1546.94 835.03C1550.73 837.63 1555.52 838.953 1561.3 839C1567.79 839 1573.2 837.239 1577.53 833.719C1581.55 830.617 1584.67 826.513 1586.6 821.82C1588.31 817.45 1589.18 812.8 1589.17 808.109H1589.15Z" fill="white"/>
</g>
<defs>
<clipPath id="clip0_4994_459">
<rect width="1625.15" height="844.64" fill="white"/>
</clipPath>
</defs>
</svg>
