<svg width="18" height="19" viewBox="0 0 18 19" fill="none" xmlns="http://www.w3.org/2000/svg">
<g clip-path="url(#clip0_92_468)">
<path d="M12.7552 1.78027H5.25693C3.18635 1.78027 1.50781 3.44916 1.50781 5.50783V12.9629C1.50781 15.0216 3.18635 16.6905 5.25693 16.6905H12.7552C14.8258 16.6905 16.5043 15.0216 16.5043 12.9629V5.50783C16.5043 3.44916 14.8258 1.78027 12.7552 1.78027Z" stroke="#25283E" stroke-width="2" stroke-linecap="round" stroke-linejoin="round"/>
<path d="M12.0052 8.76631C12.0978 9.38676 11.9912 10.0204 11.7006 10.5772C11.4101 11.1339 10.9503 11.5854 10.3868 11.8674C9.82331 12.1494 9.18472 12.2476 8.56187 12.1479C7.93902 12.0483 7.36363 11.7559 6.91754 11.3124C6.47145 10.8688 6.17738 10.2968 6.07716 9.67749C5.97693 9.05822 6.07566 8.4233 6.35929 7.86303C6.64292 7.30276 7.09701 6.84568 7.65698 6.5568C8.21694 6.26791 8.85427 6.16193 9.47831 6.25394C10.1149 6.34779 10.7042 6.6427 11.1592 7.0951C11.6142 7.54751 11.9108 8.13343 12.0052 8.76631Z" stroke="#25283E" stroke-width="2" stroke-linecap="round" stroke-linejoin="round"/>
<ellipse cx="13.1289" cy="5.13292" rx="1.125" ry="1.11827" fill="white"/>
</g>
<defs>
<clipPath id="clip0_92_468">
<rect width="17.9958" height="17.8923" fill="white" transform="translate(0.0078125 0.288086)"/>
</clipPath>
</defs>
</svg>
