<svg width="15" height="13" viewBox="0 0 15 13" fill="none" xmlns="http://www.w3.org/2000/svg">
<path d="M14.2902 2.31075C13.7546 2.57901 13.219 2.66842 12.5942 2.75784C13.219 2.40017 13.6653 1.86366 13.8439 1.14832C13.3083 1.50599 12.6834 1.68483 11.9693 1.86366C11.4337 1.32715 10.6303 0.969482 9.82694 0.969482C8.30944 0.969482 6.97047 2.31075 6.97047 3.92028C6.97047 4.18853 6.97047 4.36737 7.05973 4.5462C4.64958 4.45679 2.41796 3.29435 0.989725 1.50599C0.721931 1.95308 0.632666 2.40017 0.632666 3.0261C0.632666 4.0097 1.16826 4.90388 1.97164 5.44038C1.52531 5.44038 1.07899 5.26155 0.632666 5.08271C0.632666 6.5134 1.61458 7.67583 2.95355 7.94409C2.68576 8.03351 2.41796 8.03351 2.15017 8.03351C1.97164 8.03351 1.79311 8.03351 1.61458 7.94409C1.97164 9.10652 3.04282 10.0007 4.38179 10.0007C3.39988 10.8055 2.15017 11.2526 0.721931 11.2526C0.454137 11.2526 0.275607 11.2526 0.0078125 11.2526C1.34678 12.0573 2.86429 12.5938 4.47105 12.5938C9.82694 12.5938 12.7727 8.12292 12.7727 4.27795C12.7727 4.18853 12.7727 4.0097 12.7727 3.92028C13.3975 3.47319 13.9331 2.93668 14.2902 2.31075Z" fill="#25283E"/>
</svg>
